<?xml version="1.0" encoding="UTF-8" standalone="no"?>
<svg
   width="129"
   height="85"
   version="1"
   id="svg22"
   sodipodi:docname="plasmoidheading.svg"
   inkscape:version="1.3.2 (091e20ef0f, 2023-11-25, custom)"
   xmlns:inkscape="http://www.inkscape.org/namespaces/inkscape"
   xmlns:sodipodi="http://sodipodi.sourceforge.net/DTD/sodipodi-0.dtd"
   xmlns="http://www.w3.org/2000/svg"
   xmlns:svg="http://www.w3.org/2000/svg">
  <defs
     id="defs22" />
  <sodipodi:namedview
     id="namedview22"
     pagecolor="#ffffff"
     bordercolor="#000000"
     borderopacity="0.25"
     inkscape:showpageshadow="2"
     inkscape:pageopacity="0.0"
     inkscape:pagecheckerboard="0"
     inkscape:deskcolor="#d1d1d1"
     inkscape:zoom="5.0352941"
     inkscape:cx="51.238318"
     inkscape:cy="81.524533"
     inkscape:window-width="1337"
     inkscape:window-height="907"
     inkscape:window-x="2362"
     inkscape:window-y="104"
     inkscape:window-maximized="0"
     inkscape:current-layer="svg22" />
  <rect
     id="header-center"
     style="fill:#121212;opacity:0.5"
     width="50"
     height="50"
     x="7"
     y="28" />
  <g
     id="header-topleft"
     transform="matrix(0.99999857,0,0,1,-182.99974,-230.99982)"
     style="opacity:0.5">
    <path
       style="fill:#121212"
       d="m 190.00001,251.99982 v 7 h -7 c -1e-5,-5 1.99999,-7 7,-6.99999 z"
       id="path1" />
  </g>
  <g
     id="header-left"
     transform="translate(-183.00002,-230.99981)"
     style="opacity:0.5">
    <path
       style="fill:#121212"
       d="m 183.00002,258.99981 v 50 l 7,10e-6 v -50 z"
       id="path2" />
  </g>
  <g
     id="header-right"
     transform="translate(-182.99997,-231.00185)"
     style="opacity:0.5">
    <path
       style="fill:#121212"
       d="m 247,258.99982 v 50 l -7,10e-6 v -50 z"
       id="path3" />
  </g>
  <g
     id="header-topright"
     transform="translate(-182.99997,-230.99982)"
     style="opacity:0.5">
    <path
       style="fill:#121212"
       d="m 240,251.99982 v 7 h 7 c -3e-5,-5 -2.00003,-7 -7,-7 z"
       id="path4" />
  </g>
  <g
     id="header-top"
     transform="translate(-182.99997,-230.99982)"
     style="opacity:0.5">
    <path
       style="fill:#121212"
       d="M 189.99998,251.99982 H 240 v 7 h -50.00001 z"
       id="path5" />
  </g>
  <rect
     id="hint-top-margin"
     style="fill:#ff00ff;opacity:0.5"
     width="4"
     height="7"
     x="30"
     y="28" />
  <rect
     id="hint-left-margin"
     style="fill:#ff00ff;opacity:0.5"
     width="7"
     height="4"
     x="7"
     y="50" />
  <rect
     id="hint-right-margin"
     style="fill:#ff00ff;opacity:0.5"
     width="7"
     height="4"
     x="50"
     y="50" />
  <rect
     id="hint-tile-center"
     style="fill:#ff00ff"
     width="5"
     height="5"
     x="0"
     y="0" />
  <g
     id="header-bottomleft"
     transform="matrix(0.99999714,0,0,6.9987361,1.69e-6,-509.89652)"
     style="opacity:0.5">
    <path
       style="fill:#121212"
       d="m 7.00002,84.857574 v -0.857261 h -7 l -1e-5,0.857406 z"
       id="path6" />
    <path
       style="opacity:0.1;fill:#ffffff"
       d="m 7.00002,85.000534 v -0.142852 h -7 l -1e-5,0.142873 z"
       id="path7" />
  </g>
  <g
     id="header-bottom"
     transform="matrix(1,0,0,6.9992408,1.69e-6,-509.93236)"
     style="opacity:0.5">
    <path
       style="fill:#121212"
       d="M 6.99999,84.85672 H 57.00001 V 83.999449 H 7 Z"
       id="path8" />
    <path
       style="opacity:0.1;fill:#ffffff"
       d="M 6.99999,84.999546 H 57.00001 V 84.856694 H 7 Z"
       id="path9" />
  </g>
  <g
     id="header-bottomright"
     transform="matrix(1,0,0,6.9992408,-8.31e-6,-509.9359)"
     style="opacity:0.5">
    <path
       style="fill:#121212"
       d="m 57.00001,84.857153 v -0.857271 h 7 v 0.857415 z"
       id="path10" />
    <path
       style="opacity:0.1;fill:#ffffff"
       d="m 57.00001,85.000041 v -0.142852 h 7 v 0.142873 z"
       id="path11" />
  </g>
  <rect
     id="hint-bottom-margin"
     style="fill:#ff00ff;opacity:0.5"
     width="4"
     height="7"
     x="30"
     y="71" />
  <rect
     id="footer-center"
     style="fill:#121212;opacity:0.5"
     width="50"
     height="50"
     x="72"
     y="28" />
  <g
     id="footer-bottomleft"
     transform="matrix(0.99999855,0,0,1,-117.99972,-173.99982)"
     style="opacity:0.5">
    <path
       style="fill:#121212"
       d="m 190.00001,251.99982 v 7 c -5.00002,0 -7.00002,-2 -7.00001,-6.99899 0,0 7,0 7.00001,-0.001 z"
       id="path12" />
  </g>
  <g
     id="footer-left"
     transform="translate(-118.00001,-230.99982)"
     style="opacity:0.5">
    <path
       style="fill:#121212"
       d="m 183.00002,258.99981 v 50 l 7,10e-6 v -50 z"
       id="path13" />
  </g>
  <g
     id="footer-right"
     transform="translate(-117.99999,-230.99983)"
     style="opacity:0.5">
    <path
       style="fill:#121212"
       d="m 247,258.99982 v 50 l -7,10e-6 v -50 z"
       id="path14" />
  </g>
  <g
     id="footer-bottomright"
     transform="translate(-117.99997,-173.99982)"
     style="opacity:0.5">
    <path
       style="fill:#121212"
       d="m 240,251.99982 v 7 c 4.99997,0 6.99997,-2 7,-6.99899 z"
       id="path15" />
  </g>
  <g
     id="footer-bottom"
     transform="translate(-117.99997,-173.99982)"
     style="opacity:0.5">
    <path
       style="fill:#121212"
       d="M 189.99998,251.99982 H 240 v 7 h -50.00001 z"
       id="path16" />
  </g>
  <g
     id="footer-topleft"
     transform="matrix(0.99999857,0,0,-0.99985574,64.999992,105.98758)"
     style="opacity:0.5">
    <path
       style="fill:#121212"
       d="m 7.00002,83.997972 v -5.999136 h -7 l -1e-5,6.000002 z"
       id="path17" />
    <path
       style="opacity:0.1;fill:#ffffff"
       d="m 7.00002,84.998839 v -0.999141 h -7 l -1e-5,0.999285 z"
       id="path18" />
  </g>
  <g
     id="footer-top"
     transform="matrix(1,0,0,-1,65.000012,105.99898)"
     style="opacity:0.5">
    <path
       style="fill:#121212"
       d="M 6.99999,83.998116 H 57.00001 V 77.99898 H 7 Z"
       id="path19" />
    <path
       style="opacity:0.1;fill:#ffffff"
       d="M 6.99999,84.998836 H 57.00001 V 83.999695 H 7 Z"
       id="path20" />
  </g>
  <g
     id="footer-topright"
     transform="matrix(1,0,0,-0.99985574,65.000012,105.98672)"
     style="opacity:0.5">
    <path
       style="fill:#121212"
       d="m 57.00001,83.997972 v -5.999136 h 7 v 6.000002 z"
       id="path21" />
    <path
       style="opacity:0.1;fill:#ffffff"
       d="m 57.00001,84.998838 v -0.999141 h 7 v 0.999285 z"
       id="path22" />
  </g>
</svg>
